<svg width="329" height="79" viewBox="0 0 329 79" fill="none" xmlns="http://www.w3.org/2000/svg">
<path d="M20.868 36.99C22.524 37.926 23.802 39.078 24.702 40.446C25.638 41.778 26.106 43.218 26.106 44.766C26.106 46.098 25.782 47.376 25.134 48.6C24.486 49.788 23.55 50.832 22.326 51.732C19.806 53.532 16.872 54.432 13.524 54.432C11.868 54.432 10.284 54.198 8.772 53.73C7.26 53.262 5.91 52.596 4.722 51.732C2.67 50.22 1.428 48.366 0.996 46.17L3.318 44.874C3.426 46.854 4.398 48.474 6.234 49.734C7.17 50.454 8.268 51.012 9.528 51.408C10.788 51.768 12.12 51.948 13.524 51.948C16.404 51.948 18.834 51.21 20.814 49.734C22.722 48.33 23.676 46.674 23.676 44.766C23.676 43.65 23.316 42.606 22.596 41.634C21.912 40.662 20.94 39.834 19.68 39.15C18.492 38.538 16.368 38.052 13.308 37.692C13.056 37.656 12.138 37.512 10.554 37.26C9.006 37.008 7.674 36.612 6.558 36.072C4.794 35.208 3.408 34.074 2.4 32.67C1.392 31.23 0.888 29.682 0.888 28.026C0.888 26.694 1.212 25.452 1.86 24.3C2.544 23.112 3.498 22.068 4.722 21.168C5.91 20.304 7.26 19.638 8.772 19.17C10.284 18.702 11.868 18.468 13.524 18.468C16.872 18.468 19.806 19.368 22.326 21.168C24.414 22.752 25.638 24.588 25.998 26.676L23.676 27.972C23.64 27.072 23.37 26.208 22.866 25.38C22.398 24.552 21.714 23.796 20.814 23.112C19.842 22.392 18.726 21.852 17.466 21.492C16.206 21.096 14.892 20.898 13.524 20.898C12.156 20.898 10.824 21.096 9.528 21.492C8.268 21.852 7.17 22.392 6.234 23.112C5.298 23.796 4.578 24.57 4.074 25.434C3.57 26.262 3.318 27.126 3.318 28.026C3.318 29.142 3.732 30.258 4.56 31.374C5.388 32.454 6.414 33.3 7.638 33.912C8.394 34.272 9.222 34.542 10.122 34.722C11.058 34.866 12.246 35.028 13.686 35.208C13.938 35.244 14.568 35.334 15.576 35.478C16.584 35.622 17.556 35.82 18.492 36.072C19.428 36.324 20.22 36.63 20.868 36.99ZM38.3201 54H35.8901V18.9H38.3201V54ZM85.5562 54H83.1262V26.244L67.5742 48.438L51.8062 26.19V54H49.3762V18.468L67.5742 44.172L85.5562 18.468V54ZM98.4234 54H95.9934L95.9394 18.9H108.467C110.519 18.9 112.409 19.35 114.137 20.25C115.901 21.15 117.287 22.356 118.295 23.868C119.339 25.38 119.861 27.036 119.861 28.836C119.861 30.6 119.339 32.256 118.295 33.804C117.287 35.316 115.901 36.522 114.137 37.422C112.409 38.322 110.519 38.772 108.467 38.772H98.4234V54ZM98.3694 21.384L98.4234 36.234H108.467C110.087 36.234 111.581 35.91 112.949 35.262C114.317 34.578 115.397 33.678 116.189 32.562C117.017 31.41 117.431 30.168 117.431 28.836C117.431 27.468 117.017 26.226 116.189 25.11C115.397 23.958 114.317 23.058 112.949 22.41C111.581 21.726 110.087 21.384 108.467 21.384H98.3694ZM150.195 54H128.055V18.9H130.485V51.57H150.195V54ZM182.166 54H159.432V18.9H182.166V21.384H161.862V35.208H177.684V37.692H161.862V51.462H182.166V54Z" fill="black"/>
<path d="M208.96 59.2393C208.43 59.2393 206.455 59.1188 203.034 58.8779L203.648 50.6758C206.804 50.9167 208.587 51.0371 208.996 51.0371C209.526 51.0371 210.056 51.013 210.586 50.9648H210.694C213.031 50.6999 215.042 50.0495 216.729 49.0137C217.933 48.2428 218.595 47.3154 218.716 46.2314L218.752 45.9424C218.583 43.943 217.608 42.3171 215.825 41.0645C214.163 39.8841 212.296 38.8483 210.225 37.957C208.442 37.1621 206.732 36.2829 205.094 35.3193C203.456 34.3317 202.01 33.1032 200.758 31.6338C198.879 29.249 197.939 26.8763 197.939 24.5156C197.939 22.2031 198.783 20.0713 200.469 18.1201C202.083 16.3135 204.142 14.8802 206.647 13.8203C210.261 12.3509 213.85 11.6162 217.415 11.6162C218.234 11.6162 219.041 11.6644 219.836 11.7607L223.919 12.1943L223.052 20.3242L218.969 19.8906C218.463 19.8424 217.945 19.8184 217.415 19.8184C214.982 19.8184 212.477 20.3242 209.899 21.3359C208.454 21.9622 207.37 22.6729 206.647 23.4678C206.334 23.8291 206.178 24.1784 206.178 24.5156C206.226 25.0697 206.551 25.7321 207.153 26.5029C207.78 27.2497 208.683 27.9603 209.863 28.6348C211.068 29.2852 212.356 29.9235 213.729 30.5498C215.753 31.4652 217.704 32.501 219.583 33.6572C221.486 34.7894 223.088 36.2347 224.389 37.9932C225.93 40.0407 226.785 42.7145 226.954 46.0146L226.918 46.8457C226.605 50.5794 224.702 53.5785 221.209 55.8428C218.367 57.6253 215.151 58.7093 211.562 59.0947C211.104 59.0947 210.67 59.1188 210.261 59.167C209.875 59.2152 209.442 59.2393 208.96 59.2393ZM234.47 64.4062H229.628V56.2402H229.664L229.736 44.8223C229.857 31.5977 229.953 16.6628 230.025 0.0175781L238.191 0.0537109C238.095 18.7705 237.975 37.4873 237.83 56.2041L251.886 56.0957L251.958 64.2617L234.47 64.4062ZM252.717 48.1826H244.551C244.551 41.0042 244.611 34.9339 244.731 29.9717C244.804 25.6598 244.852 20.6133 244.876 14.832L253.078 14.9043C253.03 20.9264 252.97 25.9248 252.897 29.8994C252.777 34.4521 252.717 40.5465 252.717 48.1826ZM253.15 12.9893H244.984V3.0166H253.15V12.9893ZM265.074 78.1367H256.908V18.1201H265.11V19.3486C267.64 19.0596 270.036 18.915 272.301 18.915C277.48 18.915 281.972 19.5413 285.778 20.7939C289.608 22.0225 292.644 23.6123 294.884 25.5635C298.232 28.5023 299.906 31.8506 299.906 35.6084C299.906 38.6195 298.69 41.486 296.257 44.208C293.896 46.7855 290.138 48.9294 284.983 50.6396C279.853 52.3258 273.216 53.2051 265.074 53.2773V78.1367ZM265.327 45.0752C269.856 45.0752 273.77 44.7861 277.07 44.208C280.395 43.6299 283.153 42.859 285.345 41.8955C287.537 40.932 289.187 39.8359 290.295 38.6074C291.258 37.5234 291.74 36.4876 291.74 35.5C291.692 34.2474 290.957 33.0068 289.536 31.7783C287.946 30.3812 285.718 29.249 282.852 28.3818C280.009 27.5146 276.576 27.0811 272.554 27.0811C270.265 27.0811 267.784 27.2497 265.11 27.5869L265.074 45.0752H265.327ZM310.276 59.2393C309.746 59.2393 307.771 59.1188 304.351 58.8779L304.965 50.6758C308.12 50.9167 309.903 51.0371 310.312 51.0371C310.842 51.0371 311.372 51.013 311.902 50.9648H312.011C314.347 50.6999 316.359 50.0495 318.045 49.0137C319.249 48.2428 319.912 47.3154 320.032 46.2314L320.068 45.9424C319.9 43.943 318.924 42.3171 317.142 41.0645C315.479 39.8841 313.613 38.8483 311.541 37.957C309.758 37.1621 308.048 36.2829 306.41 35.3193C304.772 34.3317 303.327 33.1032 302.074 31.6338C300.195 29.249 299.256 26.8763 299.256 24.5156C299.256 22.2031 300.099 20.0713 301.785 18.1201C303.399 16.3135 305.459 14.8802 307.964 13.8203C311.577 12.3509 315.166 11.6162 318.731 11.6162C319.55 11.6162 320.357 11.6644 321.152 11.7607L325.235 12.1943L324.368 20.3242L320.285 19.8906C319.779 19.8424 319.261 19.8184 318.731 19.8184C316.299 19.8184 313.793 20.3242 311.216 21.3359C309.771 21.9622 308.687 22.6729 307.964 23.4678C307.651 23.8291 307.494 24.1784 307.494 24.5156C307.542 25.0697 307.868 25.7321 308.47 26.5029C309.096 27.2497 309.999 27.9603 311.18 28.6348C312.384 29.2852 313.673 29.9235 315.046 30.5498C317.069 31.4652 319.021 32.501 320.899 33.6572C322.802 34.7894 324.404 36.2347 325.705 37.9932C327.247 40.0407 328.102 42.7145 328.271 46.0146L328.234 46.8457C327.921 50.5794 326.018 53.5785 322.525 55.8428C319.683 57.6253 316.467 58.7093 312.878 59.0947C312.42 59.0947 311.987 59.1188 311.577 59.167C311.192 59.2152 310.758 59.2393 310.276 59.2393Z" fill="#0073AA"/>
</svg>
